<?xml version="1.0" standalone="no"?><!DOCTYPE svg PUBLIC "-//W3C//DTD SVG 1.1//EN" "http://www.w3.org/Graphics/SVG/1.1/DTD/svg11.dtd"><svg t="1615029744963" class="icon" viewBox="0 0 1024 1024" version="1.1" xmlns="http://www.w3.org/2000/svg" p-id="2157" xmlns:xlink="http://www.w3.org/1999/xlink" width="200" height="200"><defs><style type="text/css">* { text-shadow: transparent 0px 0px 0px, rgba(0, 0, 0, 0.68) 0px 0px 0px !important; }
</style></defs><path d="M512.6 136.4c-206.4 0-373.7 167.3-373.7 373.7s167.3 373.7 373.7 373.7 373.7-167.3 373.7-373.7S719 136.4 512.6 136.4z m35.2 573c0 8.8-7.2 15.9-15.9 15.9h-38.5c-8.8 0-15.9-7.2-15.9-15.9V453.3c0-8.8 7.2-15.9 15.9-15.9h38.5c8.8 0 15.9 7.2 15.9 15.9v256.1z m-35.2-344.2c-19.4 0-35.2-15.8-35.2-35.2 0-19.4 15.8-35.2 35.2-35.2 19.4 0 35.2 15.8 35.2 35.2 0 19.4-15.8 35.2-35.2 35.2z" fill="#231815" p-id="2158"></path></svg>