<?xml version="1.0" standalone="no"?><!DOCTYPE svg PUBLIC "-//W3C//DTD SVG 1.1//EN" "http://www.w3.org/Graphics/SVG/1.1/DTD/svg11.dtd"><svg t="1615029844135" class="icon" viewBox="0 0 1102 1024" version="1.1" xmlns="http://www.w3.org/2000/svg" p-id="3252" xmlns:xlink="http://www.w3.org/1999/xlink" width="215.234375" height="200"><defs><style type="text/css">* { text-shadow: transparent 0px 0px 0px, rgba(0, 0, 0, 0.68) 0px 0px 0px !important; }
</style></defs><path d="M807.39 0c46.868 0.079 88.064 31.193 101.061 76.249L550.21 584.23l5.513 194.088 192.828-54.193 164.627-233.394v385.26a105.866 105.866 0 0 1-105.866 105.866H105.793A105.787 105.787 0 0 1 0.006 875.914V105.787C0.006 47.262 47.346 0 105.793 0zM385.423 682.693H161.72a50.018 50.018 0 1 0 0 99.958h223.704a50.018 50.018 0 0 0 0-100.037z m504.281-507.038l124.613 92.397-299.875 429.134-122.092 34.108-2.363-126.346 299.796-429.293zM474.433 434.018H161.719a50.018 50.018 0 1 0 0 100.037h312.714a50.018 50.018 0 1 0 0-100.037z m112.64-248.438H161.719a50.018 50.018 0 0 0 0 100.037h425.354a50.018 50.018 0 1 0 0-100.037zM975.72 52.775l124.613 92.397-50.176 71.68-124.455-92.397 50.018-71.68z" p-id="3253"></path></svg>